<?xml version="1.0" standalone="no"?>
<!DOCTYPE svg PUBLIC "-//W3C//DTD SVG 20010904//EN"
 "http://www.w3.org/TR/2001/REC-SVG-20010904/DTD/svg10.dtd">
<svg version="1.0" xmlns="http://www.w3.org/2000/svg"
 width="500.000000pt" height="500.000000pt" viewBox="0 0 500.000000 500.000000"
 preserveAspectRatio="xMidYMid meet">
<metadata>
Created by potrace 1.11, written by Peter Selinger 2001-2013
</metadata>
<g transform="translate(0.000000,500.000000) scale(0.100000,-0.100000)"
fill="#000000" stroke="none">
<path d="M2299 4926 c-2 -2 -35 -7 -72 -11 -37 -3 -76 -8 -85 -9 -9 -2 -39 -7
-67 -11 -248 -35 -598 -165 -835 -309 -91 -56 -231 -153 -276 -193 -12 -10
-41 -34 -64 -53 -54 -45 -190 -181 -244 -244 -22 -27 -46 -54 -51 -60 -29 -31
-109 -141 -160 -221 -163 -252 -289 -567 -339 -845 -24 -132 -25 -141 -33
-200 -10 -74 -10 -440 -1 -515 5 -33 11 -80 14 -105 5 -37 35 -187 48 -240
129 -508 419 -960 831 -1293 223 -180 470 -315 765 -417 49 -17 166 -49 240
-64 110 -24 119 -26 185 -32 33 -3 64 -9 70 -12 15 -10 415 -10 490 -1 39 5
92 12 120 15 61 7 228 41 271 54 17 6 40 12 50 15 35 7 178 57 264 92 354 146
685 393 945 708 70 84 181 245 228 330 33 61 137 274 137 281 0 3 6 20 14 37
62 142 124 393 150 607 14 112 15 468 2 550 -3 19 -8 51 -11 70 -3 19 -8 49
-10 65 -15 118 -96 395 -160 545 -66 157 -209 401 -304 520 -282 353 -584 585
-1003 769 -135 59 -430 139 -583 156 -33 4 -69 10 -80 12 -23 6 -441 13 -446
9z"/>
</g>
</svg>
